<?xml version="1.0" encoding="iso-8859-1"?>
<svg version="1.1" id="Layer_1" xmlns="http://www.w3.org/2000/svg" xmlns:xlink="http://www.w3.org/1999/xlink" x="0px" y="0px" viewBox="0 0 469.333 469.333" style="enable-background:new 0 0 469.333 469.333;" xml:space="preserve">
<path d="M466.211,387.125L316.877,237.792c-3.042-3.052-7.646-3.948-11.625-2.313c-3.979,1.646-6.583,5.542-6.583,9.854v213.333c0,4.313,2.604,8.208,6.583,9.854c1.313,0.552,2.708,0.813,4.083,0.813c2.771,0,5.5-1.083,7.542-3.125l60.875-60.875h80.917c4.313,0,8.208-2.594,9.854-6.583C470.169,394.76,469.252,390.177,466.211,387.125z M373.336,384c-2.833,0-5.542,1.125-7.542,3.125l-45.792,45.792V271.083L432.919,384H373.336z"/>
<path d="M42.669,341.333H21.336V320c0-5.896-4.771-10.667-10.667-10.667c-5.896,0-10.667,4.771-10.667,10.667v32c0,5.896,4.771,10.667,10.667,10.667h32c5.896,0,10.667-4.771,10.667-10.667C53.336,346.104,48.565,341.333,42.669,341.333z"/>
<path d="M10.669,160c5.896,0,10.667-4.771,10.667-10.667v-42.667c0-5.896-4.771-10.667-10.667-10.667c-5.896,0-10.667,4.771-10.667,10.667v42.667C0.002,155.229,4.773,160,10.669,160z"/>
<path d="M10.669,266.667c5.896,0,10.667-4.771,10.667-10.667v-42.667c0-5.896-4.771-10.667-10.667-10.667c-5.896,0-10.667,4.771-10.667,10.667V256C0.002,261.896,4.773,266.667,10.669,266.667z"/>
<path d="M42.669,0h-32C4.773,0,0.002,4.771,0.002,10.667v32c0,5.896,4.771,10.667,10.667,10.667c5.896,0,10.667-4.771,10.667-10.667V21.333h21.333c5.896,0,10.667-4.771,10.667-10.667S48.565,0,42.669,0z"/>
<path d="M149.336,0h-42.667c-5.896,0-10.667,4.771-10.667,10.667s4.771,10.667,10.667,10.667h42.667c5.896,0,10.667-4.771,10.667-10.667S155.231,0,149.336,0z"/>
<path d="M256.002,0h-42.667c-5.896,0-10.667,4.771-10.667,10.667s4.771,10.667,10.667,10.667h42.667c5.896,0,10.667-4.771,10.667-10.667S261.898,0,256.002,0z"/>
<path d="M149.336,341.333h-42.667c-5.896,0-10.667,4.771-10.667,10.667c0,5.896,4.771,10.667,10.667,10.667h42.667c5.896,0,10.667-4.771,10.667-10.667C160.002,346.104,155.231,341.333,149.336,341.333z"/>
<path d="M256.002,341.333h-42.667c-5.896,0-10.667,4.771-10.667,10.667c0,5.896,4.771,10.667,10.667,10.667h42.667c5.896,0,10.667-4.771,10.667-10.667C266.669,346.104,261.898,341.333,256.002,341.333z"/>
<path d="M320.002,21.333h21.333v21.333c0,5.896,4.771,10.667,10.667,10.667s10.667-4.771,10.667-10.667v-32C362.669,4.771,357.898,0,352.002,0h-32c-5.896,0-10.667,4.771-10.667,10.667S314.106,21.333,320.002,21.333z"/>
<path d="M352.002,202.667c-5.896,0-10.667,4.771-10.667,10.667v21.333c0,5.896,4.771,10.667,10.667,10.667s10.667-4.771,10.667-10.667v-21.333C362.669,207.437,357.898,202.667,352.002,202.667z"/>
<path d="M362.669,106.667c0-5.896-4.771-10.667-10.667-10.667s-10.667,4.771-10.667,10.667v42.667c0,5.896,4.771,10.667,10.667,10.667s10.667-4.771,10.667-10.667V106.667z"/>
</svg>
