<?xml version="1.0" encoding="iso-8859-1"?>
<svg version="1.1" id="Capa_1" xmlns="http://www.w3.org/2000/svg" xmlns:xlink="http://www.w3.org/1999/xlink" x="0px" y="0px" viewBox="0 0 512 512" style="enable-background:new 0 0 512 512;" xml:space="preserve">
<polygon style="fill:#EFEFEF;" points="337.99,174.01 337.99,10.039 10.039,10.039 10.039,337.99 174.01,337.99 174.01,501.961 501.961,501.961 501.961,174.01"/>
<polygon style="fill:#EFEFEF;" points="501.961,174.01 501.961,501.961 174.01,501.961 174.01,337.99 337.99,337.99 337.99,174.01"/>
<polygon style="fill:#FF4F4F;" points="337.99,10.039 337.99,174.01 174.01,174.01 174.01,337.99 10.039,337.99 10.039,10.039"/>
<path d="M501.961,163.971H348.03V10.039C348.03,4.495,343.535,0,337.99,0H10.039C4.495,0,0,4.495,0,10.039V337.99 c0,5.545,4.495,10.039,10.039,10.039h153.931v153.931c0,5.545,4.495,10.039,10.039,10.039h327.951 c5.545,0,10.039-4.495,10.039-10.039V174.01C512,168.465,507.505,163.971,501.961,163.971z M20.078,327.951V20.078h307.873v143.892 H174.01c-5.545,0-10.039,4.495-10.039,10.039v153.941L20.078,327.951L20.078,327.951z M327.951,184.049v143.902H184.049V184.049 H327.951z M491.922,491.922H184.049V348.03H337.99c5.545,0,10.039-4.495,10.039-10.039V184.049h143.892V491.922z"/>
</svg>
